# xmcd CD database file
#
# Track frame offsets:
#	150
#	13330
#	33205
#	54652
#
# Disc length: 892 seconds
#
# Revision: 0
# Processed by: cddbd v1.5PL3 Copyright (c) Steve Scherf et al.
# Submitted via: CDex 1.50
#
DISCID=2c037a04
DTITLE=Ｏｒａｎｇｅ　Ｒａｎｇｅ - 上海ハニー
DYEAR=2003
DGENRE=Hip-Hop
TTITLE0=上海ハニー
TTITLE1=ニュー･トウキオマシン
TTITLE2=上海ハニー 〜Ryukyudisco Remix〜
TTITLE3=上海ハニー　〜上海style〜
EXTD=YEAR: 2003/07/16
EXTT0=
EXTT1=
EXTT2=
EXTT3=
PLAYORDER=
